HIERARCHY
ROOT hip
{
	OFFSET 0.000000 0.000000 0.000000 
	CHANNELS 6 Xposition Yposition Zposition Xrotation Zrotation Yrotation
	JOINT abdomen
	{
		OFFSET 0.000000 3.402643 0.000000 
		CHANNELS 3 Xrotation Zrotation Yrotation
		JOINT chest
		{
			OFFSET 0.000000 8.438565 -0.680529 
			CHANNELS 3 Xrotation Zrotation Yrotation
			JOINT neck
			{
				OFFSET 0.000000 10.207942 -0.272212 
				CHANNELS 3 Xrotation Zrotation Yrotation
				JOINT head
				{
					OFFSET 0.000000 3.130431 0.000000 
					CHANNELS 3 Xrotation Zrotation Yrotation
					End Site
					{
						OFFSET 0.000000 3.130435 0.000000 
					}
				}
			}
			JOINT lCollar
			{
				OFFSET 3.470700 6.669187 -0.816635 
				CHANNELS 3 Yrotation Zrotation Xrotation
				JOINT lShldr
				{
					OFFSET 3.198488 0.000000 0.000000 
					CHANNELS 3 Zrotation Yrotation Xrotation
					JOINT lForeArm
					{
						OFFSET 10.139888 0.000000 0.000000 
						CHANNELS 3 Yrotation Zrotation Xrotation
						JOINT lHand
						{
							OFFSET 8.370511 0.000000 0.000000 
							CHANNELS 3 Zrotation Yrotation Xrotation
							End Site
							{
								OFFSET 4.083176 0.000000 0.000000 
							}
						}
					}
				}
			}
			JOINT rCollar
			{
				OFFSET -3.470700 6.669187 -0.816635 
				CHANNELS 3 Yrotation Zrotation Xrotation
				JOINT rShldr
				{
					OFFSET -3.198488 0.000000 0.000000 
					CHANNELS 3 Zrotation Yrotation Xrotation
					JOINT rForeArm
					{
						OFFSET -10.139888 0.000000 0.000000 
						CHANNELS 3 Yrotation Zrotation Xrotation
						JOINT rHand
						{
							OFFSET -8.370511 0.000000 0.000000 
							CHANNELS 3 Zrotation Yrotation Xrotation
							End Site
							{
								OFFSET -4.083176 0.000000 0.000000 
							}
						}
					}
				}
			}
		}
	}
	JOINT lThigh
	{
		OFFSET 5.308129 -1.633274 1.361059 
		CHANNELS 3 Xrotation Zrotation Yrotation
		JOINT lShin
		{
			OFFSET -2.041588 -20.007561 0.000000 
			CHANNELS 3 Xrotation Zrotation Yrotation
			JOINT lFoot
			{
				OFFSET 0.000000 -19.190928 -1.224953 
				CHANNELS 3 Xrotation Yrotation Zrotation
				End Site
				{
					OFFSET 0.000000 -2.449906 4.627600 
				}
			}
		}
	}
	JOINT rThigh
	{
		OFFSET -5.308129 -1.633274 1.361059 
		CHANNELS 3 Xrotation Zrotation Yrotation
		JOINT rShin
		{
			OFFSET 2.041588 -20.007561 0.000000 
			CHANNELS 3 Xrotation Zrotation Yrotation
			JOINT rFoot
			{
				OFFSET 0.000000 -19.190928 -1.224953 
				CHANNELS 3 Xrotation Yrotation Zrotation
				End Site
				{
					OFFSET 0.000000 -2.449906 4.627600 
				}
			}
		}
	}
}
MOTION
Frames: 16
Frame Time: 0.033333
-7.931063 42.813049 -54.575348 6.669922 -3.173828 39.189453 24.921875 0.449219 -0.732422 -7.353516 -1.894531 -0.136719 -20.429688 -1.513672 -18.808849 7.109375 8.242188 -18.865788 5.634766 13.583983 0.673828 -93.896484 -42.841797 71.907425 -57.441406 -3.027344 -33.729950 11.210938 4.609375 0.616021 -9.462891 -4.394531 0.146484 80.273438 43.378906 16.357420 62.763676 3.593750 -50.293583 -28.466797 -4.013672 1.757792 -20.017826 16.813898 16.257385 50.364044 -0.577728 -2.970867 -34.836693 -6.982517 -12.252881 -40.038322 -22.108891 -14.096561 52.108589 -0.185550 3.054768 -14.190588 9.979959 9.592216 
-7.951922 42.618900 -53.618584 6.855469 -2.988281 38.847652 24.052734 -0.244141 -1.611370 -7.880860 -2.070312 -1.025391 -20.136719 -0.947266 -18.134768 7.998046 8.242188 -17.929688 6.308594 14.316407 0.644531 -96.337891 -44.619141 74.980469 -56.103512 -3.193359 -35.819771 11.171874 3.583984 0.449219 -10.146484 -5.126953 0.137591 79.785156 45.332035 16.884766 62.089840 3.613281 -54.101563 -29.384766 -5.615234 2.655296 -18.473505 18.090223 17.308573 50.005379 -0.599482 -3.155714 -35.176453 -7.635593 -12.834276 -39.993656 -21.381186 -14.116426 54.381161 -0.371144 3.065118 -16.855751 9.267576 9.931474 
-7.951806 42.479755 -52.394001 6.669922 -2.988281 37.958984 23.007811 -0.341797 -2.724610 -8.232422 -2.246094 -2.089844 -19.023438 -0.351563 -16.767580 8.886718 8.251954 -16.289064 7.119140 14.882812 0.693359 -100.009766 -48.193356 76.513672 -56.962891 -3.154297 -38.466259 11.064453 5.283203 0.800781 -10.996094 -6.230468 0.205078 77.890625 49.677734 15.263673 63.535156 3.613281 -57.197884 -30.878906 -6.718750 3.621906 -15.787891 19.396215 18.564146 48.430759 -0.743361 -2.932885 -35.128063 -7.828223 -12.955935 -39.488392 -19.996931 -13.921950 56.505405 -0.371035 2.973491 -20.060543 8.959182 10.559685 
-7.947146 42.418808 -50.890907 6.152344 -3.349610 36.552734 21.787107 -0.097656 -3.750000 -8.935546 -2.587891 -3.164504 -17.080078 0.634766 -14.892579 9.941406 8.427734 -14.462892 7.373046 15.976563 0.839844 -104.306641 -53.330078 76.242165 -59.169922 -3.261719 -39.130859 10.898438 5.644531 0.831039 -12.519532 -7.714844 0.234375 73.398438 56.152340 10.976563 67.236328 3.671875 -57.109375 -32.402348 -7.236329 3.945313 -12.293291 21.095860 19.446283 46.328140 -0.716327 -2.676601 -33.785709 -7.376273 -12.458704 -38.450165 -17.543776 -13.866905 58.085098 -0.528855 2.959616 -22.879332 8.753169 10.999520 
-7.959264 42.418224 -49.153805 5.791016 -4.052734 34.980469 20.380859 0.654297 -4.648438 -9.814453 -2.929688 -4.052734 -14.794921 1.279297 -12.822048 11.181642 8.427734 -12.273959 7.675781 17.050777 0.751953 -109.414063 -60.751949 76.591797 -61.718750 -3.212891 -37.607422 12.021485 2.207031 0.215221 -14.716797 -9.258193 0.265130 65.058594 65.302734 0.273437 71.699219 3.623047 -53.799442 -32.158199 -7.607422 4.276051 -8.798914 22.797106 19.708384 43.861439 -0.600760 -3.001129 -30.981379 -5.369987 -10.414724 -36.513435 -14.374975 -13.504400 58.780621 -0.546673 3.163413 -26.076864 7.989764 11.289988 
-7.994925 42.458775 -47.242355 5.625000 -4.755859 33.378098 19.150389 1.367188 -5.380859 -11.054688 -3.457031 -4.960937 -12.490233 2.089844 -10.946910 11.894531 8.251953 -10.468750 7.910156 18.144533 0.817271 -118.798836 -70.966797 79.638672 -64.882813 -3.242188 -38.291283 13.046875 -1.210938 -0.371094 -17.929688 -10.585938 0.411950 41.093746 74.882813 -27.011719 77.187500 3.476563 -48.652935 -31.669924 -7.998045 4.365234 -5.830589 23.703989 18.865089 42.112083 -0.805386 -2.989549 -26.077549 -1.376490 -8.118669 -34.586079 -11.413883 -13.317064 58.780621 -0.546679 3.163410 -28.857204 7.569524 11.353202 
-8.081861 42.578926 -45.196201 6.328125 -5.283204 32.157303 17.919922 1.660156 -5.859375 -12.812500 -3.798828 -5.703125 -10.302734 2.519531 -9.745665 12.421876 7.900391 -9.197877 8.261718 19.970705 0.927734 29.707033 -98.476563 -76.757706 -68.144531 -3.193360 -38.651798 12.900391 -4.238281 -1.055409 -21.777342 -12.080079 0.587981 -15.996095 76.396484 -89.716797 82.382813 3.359375 -43.193363 -30.937498 -7.968750 4.256459 -4.424468 23.987328 17.665949 41.769180 -0.619941 -2.740484 -20.601734 3.514548 -5.759011 -32.614868 -8.768673 -13.439507 58.254150 -0.536911 3.136505 -31.327257 7.060562 11.900704 
-8.202711 42.830647 -43.058784 7.558595 -5.634766 31.620132 17.041016 1.611328 -6.415740 -15.087892 -3.964844 -6.093750 -8.574219 2.187500 -9.375001 12.597655 7.900391 -9.013672 8.896484 21.992186 1.051030 -64.833977 -100.126953 10.088041 -70.673836 -3.203125 -37.753910 12.773438 -5.927735 -1.387727 -26.123049 -13.574219 0.644532 -46.210938 66.455078 -127.227379 85.585938 3.349610 -37.803307 -30.292969 -6.748047 3.367993 -4.795331 24.256697 17.953779 43.519222 -0.630040 -3.004986 -16.353939 9.396440 -4.357772 -30.375740 -6.853532 -13.659159 56.844814 -0.704685 2.806349 -33.438862 6.638933 12.062192 
-8.308410 43.212074 -40.824306 8.964844 -5.810547 32.148441 16.503908 1.308594 -6.659933 -17.373047 -3.427734 -6.142578 -7.490234 0.419922 -9.609305 12.958984 8.779296 -9.344213 9.501953 22.587891 1.011874 -88.310547 -112.578125 26.601563 -71.728516 -3.291016 -37.265621 12.626953 -6.953125 -1.552734 -32.080082 -14.648437 0.585937 -54.570313 53.320313 -142.169891 86.640625 3.085938 -33.369141 -31.181637 -4.296875 2.167237 -7.060776 23.792185 19.901575 45.805923 -0.640441 -2.774386 -16.705336 9.469110 -4.280367 -27.381266 -5.087605 -13.449492 54.047028 -0.195222 2.962084 -35.351151 5.536241 11.622967 
-8.332536 43.692093 -38.506844 10.195313 -5.458984 33.749073 16.503906 0.839844 -6.953125 -19.472656 -2.539063 -6.357855 -6.386718 -2.255859 -10.156634 12.783204 10.185547 -10.056866 10.517579 21.972656 1.129159 -95.224602 -124.755867 27.277134 -71.777344 -3.173828 -37.490231 12.460938 -7.138671 -1.542969 -38.515629 -14.677733 0.664063 -56.630859 40.371094 -150.341797 85.625000 3.115234 -29.687496 -33.564453 -3.251953 1.787109 -9.853799 22.373119 21.331438 46.484089 -0.441778 -2.902276 -19.699137 -1.359571 -7.419862 -23.502300 -3.856129 -13.530209 50.717442 0.126974 2.776194 -35.396908 3.624518 10.553772 
-8.233011 44.195187 -36.155933 10.888671 -4.921875 36.210938 16.679688 0.751953 -7.343733 -21.054686 -1.835938 -6.738594 -4.414063 -4.570313 -10.537110 12.431641 11.240234 -10.603565 11.669922 20.966799 0.904709 -99.785156 -134.794922 26.191406 -71.386719 -3.212891 -38.730469 11.728516 -6.835937 -1.339051 -44.628906 -13.681641 0.634766 -56.123047 29.609375 -154.536179 84.082031 2.919922 -29.570812 -35.869141 -3.164063 1.894531 -13.366872 19.629969 20.794786 45.067284 -0.589366 -2.910960 -23.449728 -15.626376 -13.996672 -19.839268 -2.810995 -14.911698 48.242931 0.183049 2.839801 -32.968243 2.818705 8.899802 
-8.059486 44.625557 -33.870987 11.064453 -4.580078 38.320320 16.845703 1.210938 -7.773232 -22.109375 -1.123047 -7.285157 -1.767578 -5.634766 -10.645662 11.542970 11.591798 -10.837881 13.183594 20.419924 0.996094 75.703125 -37.685543 -153.677856 -71.621094 -3.212891 -39.052189 11.718749 -6.308594 -1.337891 -45.000000 -12.158203 0.519635 -54.931641 22.578125 -156.197418 83.046875 2.949219 -28.369642 -37.822266 -3.066406 1.991665 -15.975846 16.092148 19.125500 42.807003 -0.888479 -2.706579 -26.867802 -22.583096 -18.435606 -18.920240 -2.624636 -15.940405 50.557377 0.117271 2.609333 -24.721554 3.579293 9.263821 
-7.828395 44.815044 -31.697100 10.546875 -4.228516 38.651623 17.197268 1.982422 -7.948880 -21.757813 -0.605469 -7.802852 -0.214844 -5.966800 -10.274446 11.542970 11.064454 -10.486406 15.566406 20.136719 0.986329 71.708984 -31.689455 -151.294189 -72.939453 -3.154297 -39.130859 13.515625 -7.109375 -1.602769 -45.000000 -9.609376 0.362958 -55.371094 19.707031 -160.016235 83.173828 2.900391 -26.416508 -39.003906 -3.554688 2.587285 -17.202837 13.119121 17.320795 40.529510 -0.868410 -2.417149 -27.401760 -19.355705 -17.187962 -22.082918 -3.503078 -16.654991 58.606197 -0.528679 3.136633 -10.141304 7.699277 8.360016 
-7.629347 44.629864 -29.625065 9.140625 -3.876953 37.245430 17.910158 2.832031 -7.743658 -20.869139 0.097656 -7.783187 0.927734 -5.898438 -9.228517 11.718749 10.361329 -9.423828 17.685547 20.595703 0.973128 69.052734 -28.271484 -149.350327 -73.525391 -3.085938 -36.933067 12.753907 -5.439453 -1.221627 -45.000000 -8.105469 0.265049 -55.898441 20.449217 -163.505859 85.361328 2.919922 -28.290812 -40.566406 -3.486328 2.411492 -15.770472 11.688223 14.151716 40.867443 -0.871813 -2.270581 -27.834005 -7.664968 -11.490895 -27.535801 -4.725449 -14.884712 69.833351 -1.250022 3.365993 -2.035120 9.635568 7.426554 
-7.525396 44.063148 -27.633442 7.724609 -3.691406 34.980469 18.623047 3.515625 -7.587292 -19.462891 0.800781 -7.753751 1.015625 -5.292953 -8.018503 12.246093 9.833984 -8.154297 19.238281 21.396484 1.002297 68.818367 -27.011719 -147.865768 -72.001953 -3.125000 -33.623047 11.494141 -4.433594 -0.976563 -45.000000 -7.685547 0.186853 -55.654297 23.681641 -163.417969 88.115234 3.164063 -30.712893 -42.343750 -2.109375 1.669922 -12.486719 12.455845 10.747422 42.268490 -0.761222 -2.991076 -29.513685 0.512958 -6.733265 -34.850151 -6.298044 -10.869624 79.843361 -1.582181 3.496226 -6.066437 5.856799 7.736782 
-7.582734 43.279202 -25.738544 6.669922 -3.691406 33.388672 19.501953 3.652344 -7.372424 -18.232424 1.152344 -7.734375 -0.263672 -4.375000 -7.373047 12.958983 9.306641 -7.412110 20.019531 22.861328 1.054688 70.810547 -28.593748 -147.001953 -70.195313 -3.076172 -33.066406 10.791015 -4.804688 -0.937500 -45.000000 -7.763673 0.284522 -53.554691 27.724611 -158.105469 90.283203 3.134766 -32.324219 -43.242191 -0.908203 0.517578 -9.263762 14.084247 7.862949 42.982433 -0.881552 -2.722818 -30.807938 3.031975 -5.539831 -43.681053 -8.779142 -6.397388 83.881004 -2.314112 3.238987 -10.629918 2.981234 7.268739 
